<svg width="24" height="24" viewBox="0 0 24 24" fill="none" xmlns="http://www.w3.org/2000/svg">
<path d="M24 12C24 18.6277 18.6277 24 12 24C5.37308 24 0 18.6277 0 12C0 5.37303 5.37308 0 12 0C18.6277 0 24 5.37303 24 12Z" fill="#8B8B8B"/>
<path d="M10.0001 11.9997C10.0001 7.89962 12.4683 4.376 16 2.8328C14.7747 2.29738 13.4219 2 11.9996 2C6.47719 2 2 6.47726 2 11.9997C2 17.5228 6.47724 22 11.9996 22C13.4219 22 14.7747 21.7019 16 21.1666C12.4683 19.6234 10.0001 16.1004 10.0001 11.9997Z" fill="#FECD57"/>
<path d="M4.00062 11.9997C4.00062 6.81566 7.94686 2.55225 13 2.04983C12.6711 2.01688 12.3385 2 12.0015 2C6.47805 2 2 6.47726 2 11.9997C2 17.5228 6.4781 22 12.0015 22C12.3385 22 12.6711 21.9824 13 21.9502C7.94686 21.4471 4.00062 17.1844 4.00062 11.9997Z" fill="#F5BA45"/>
</svg>
